# File units = meters
mtllib Part Studio 1 - Part 1.mtl
g Part 1
v 0.000434571 -0.0125 -1.11772e-18 
v 8.67362e-19 -0.0125 0.00276599 
v -0.000434571 -0.0125 6.93889e-18 
v -0.000434571 -0.00993985 6.93889e-18 
v 4.33681e-19 -0.00993985 0.00276599 
v 0.000434571 -0.00993985 6.93889e-18 
v 0.018397 -0.00985396 0.00565638 
v 0.0177467 -0.00986097 0 
v 0.0177467 -0.00985396 3.46945e-18 
v 0.067602 -0.00221782 -9.76552e-18 
v 0.067602 0.00345973 -2.18715e-17 
v 0.018397 0.0125 0.00565638 
v 0.0177467 0.0125 1.89847e-19 
v 0.0175083 0.0125 -3.24754e-18 
v 1.30104e-18 0.00835467 0.00276599 
v -0.018397 -0.00993985 0.00565638 
v -0.0177467 -0.00993985 2.88707e-18 
v -0.000434571 0.00835467 2.46017e-18 
v -0.018397 0.0125 0.00565638 
v -0.067602 -0.0026909 -4.94344e-18 
v -0.067602 0.00258107 -8.85156e-18 
v -0.0185547 0.0123393 1.16612e-17 
vn 0 -1 0 
vn -0.987882 0 0.155208 
vn 0.987882 0 0.155208 
vn 0.0045565 -0.999989 0.000715882 
vn 0.993457 0 -0.114203 
vn 0.151378 -0.988323 -0.0174017 
vn 0.114203 0 0.993457 
vn 0.178383 0.983747 -0.0205061 
vn 0 1 0 
vn -0.155208 0 0.987882 
vn 0 -1 0 
vn -0.22496 0.973727 0.035344 
vn 0.155208 0 0.987882 
vn -0.143867 -0.989459 -0.0165383 
vn -2.498e-16 0 -1 
vn -0.114203 0 0.993457 
vn 0.214646 0.97611 -0.0337234 
vn -0.195081 0.980531 -0.0224256 
usemtl 0.615686_0.811765_0.929412_0.000000_0.000000
o mesh0
f 1//1 2//1 3//1 
o mesh1
f 4//2 3//2 2//2 
f 2//2 5//2 4//2 
o mesh2
f 2//3 1//3 6//3 
f 6//3 5//3 2//3 
o mesh3
f 7//4 5//4 6//4 
f 6//4 8//4 7//4 
o mesh4
f 9//5 7//5 8//5 
o mesh5
f 10//6 7//6 9//6 
o mesh6
f 7//7 10//7 11//7 
f 11//7 12//7 7//7 
o mesh7
f 12//8 11//8 13//8 
o mesh8
f 14//9 12//9 13//9 
o mesh9
f 7//10 12//10 15//10 
f 15//10 5//10 7//10 
o mesh10
f 16//11 17//11 4//11 
f 4//11 5//11 16//11 
o mesh11
f 14//12 18//12 15//12 
f 15//12 12//12 14//12 
o mesh12
f 16//13 5//13 15//13 
f 15//13 19//13 16//13 
o mesh13
f 16//14 20//14 17//14 
o mesh14
f 9//15 13//15 11//15 
f 17//15 20//15 21//15 
f 17//15 22//15 18//15 
f 9//15 8//15 6//15 
f 11//15 10//15 9//15 
f 4//15 18//15 14//15 
f 18//15 4//15 17//15 
f 3//15 4//15 6//15 
f 9//15 4//15 13//15 
f 21//15 22//15 17//15 
f 6//15 4//15 9//15 
f 6//15 1//15 3//15 
f 14//15 13//15 4//15 
o mesh15
f 16//16 19//16 21//16 
f 21//16 20//16 16//16 
o mesh16
f 19//17 15//17 18//17 
f 18//17 22//17 19//17 
o mesh17
f 22//18 21//18 19//18 
